<svg width="22" height="17" viewBox="0 0 22 17" fill="none" xmlns="http://www.w3.org/2000/svg">
<path fill-rule="evenodd" clip-rule="evenodd" d="M19.125 0H2.125C0.951395 0 0 0.901366 0 2.01326V14.0928C0 15.2047 0.951395 16.1061 2.125 16.1061H19.125C20.2986 16.1061 21.25 15.2047 21.25 14.0928V2.01326C21.25 0.901366 20.2986 0 19.125 0ZM19.125 2.01404V4.93326L11.3156 10.1174C10.9003 10.3905 10.3497 10.3905 9.93437 10.1174L2.125 4.93326V2.01404H19.125ZM2.125 7.04718V14.0936H19.125V7.04718L12.3781 11.5166C11.3252 12.2139 9.92476 12.2139 8.87187 11.5166L2.125 7.04718Z" fill="#707070"/>
</svg>
