<svg width="14" height="13" viewBox="0 0 14 13" fill="none" xmlns="http://www.w3.org/2000/svg">
<path d="M12.9539 1.12968H4.92205C4.70123 0.473836 4.0809 0 3.35155 0C2.6222 0 2.00187 0.473836 1.78105 1.12968H0.527344C0.236109 1.12968 0 1.36579 0 1.65702C0 1.94825 0.236109 2.18436 0.527344 2.18436H1.78109C2.0019 2.8402 2.62223 3.31404 3.35159 3.31404C4.08094 3.31404 4.70127 2.8402 4.92209 2.18436H12.9539C13.2452 2.18436 13.4813 1.94825 13.4813 1.65702C13.4813 1.36579 13.2452 1.12968 12.9539 1.12968ZM3.35155 2.25935C3.01943 2.25935 2.74922 1.98914 2.74922 1.65702C2.74922 1.3249 3.01943 1.05469 3.35155 1.05469C3.68367 1.05469 3.95388 1.3249 3.95388 1.65702C3.95388 1.98914 3.68367 2.25935 3.35155 2.25935Z" fill="#A18A68"/>
<path d="M12.9539 5.64823H11.7001C11.4793 4.99239 10.859 4.51855 10.1296 4.51855C9.40032 4.51855 8.77999 4.99239 8.55918 5.64823H0.527344C0.236109 5.64823 0 5.88434 0 6.17557C0 6.46681 0.236109 6.70292 0.527344 6.70292H8.55918C8.77999 7.35876 9.40036 7.83259 10.1297 7.83259C10.859 7.83259 11.4794 7.35876 11.7002 6.70292H12.9539C13.2452 6.70292 13.4813 6.46681 13.4813 6.17557C13.4813 5.88434 13.2452 5.64823 12.9539 5.64823ZM10.1297 6.77791C9.79755 6.77791 9.52734 6.5077 9.52734 6.17557C9.52734 5.84345 9.79755 5.57324 10.1297 5.57324C10.4618 5.57324 10.732 5.84345 10.732 6.17557C10.732 6.5077 10.4618 6.77791 10.1297 6.77791Z" fill="#A18A68"/>
<path d="M12.9539 10.1668H7.18144C6.96062 9.51095 6.34029 9.03711 5.61094 9.03711C4.88159 9.03711 4.26125 9.51095 4.04044 10.1668H0.527344C0.236109 10.1668 0 10.4029 0 10.6941C0 10.9854 0.236109 11.2215 0.527344 11.2215H4.04044C4.26125 11.8773 4.88159 12.3511 5.61094 12.3511C6.34029 12.3511 6.96062 11.8773 7.18144 11.2215H12.9539C13.2452 11.2215 13.4813 10.9854 13.4813 10.6941C13.4813 10.4029 13.2452 10.1668 12.9539 10.1668ZM5.61094 11.2965C5.27882 11.2965 5.00861 11.0263 5.00861 10.6942C5.00861 10.362 5.27882 10.0918 5.61094 10.0918C5.94306 10.0918 6.21327 10.362 6.21327 10.6941C6.21327 11.0263 5.94306 11.2965 5.61094 11.2965Z" fill="#A18A68"/>
</svg>
