<svg width="10" height="18" viewBox="0 0 10 18" fill="none" xmlns="http://www.w3.org/2000/svg">
<path d="M0.130677 1.7291C0.047043 1.64462 0 1.52962 0 1.40965C0 1.28968 0.047043 1.17468 0.130677 1.0902L1.06725 0.136346C1.14741 0.0493498 1.25934 0 1.37649 0C1.49364 0 1.60557 0.0493498 1.68574 0.136346L9.80562 8.40609C9.92993 8.53254 9.99985 8.70408 10 8.88302V9.11698C9.99985 9.29592 9.92993 9.46746 9.80562 9.59391L1.68574 17.8637C1.60557 17.9507 1.49364 18 1.37649 18C1.25934 18 1.14741 17.9507 1.06725 17.8637L0.130677 16.9098C0.047043 16.8253 0 16.7103 0 16.5903C0 16.4704 0.047043 16.3554 0.130677 16.2709L7.26981 9L0.130677 1.7291Z" fill="black"/>
</svg>
