<svg width="10" height="18" viewBox="0 0 10 18" fill="none" xmlns="http://www.w3.org/2000/svg">
<path d="M9.86932 16.2709C9.95296 16.3554 10 16.4704 10 16.5903C10 16.7103 9.95296 16.8253 9.86932 16.9098L8.93275 17.8637C8.85259 17.9507 8.74066 18 8.62351 18C8.50636 18 8.39443 17.9507 8.31426 17.8637L0.194382 9.59391C0.0700719 9.46746 0.000154527 9.29592 -1.41001e-07 9.11698V8.88302C0.000154527 8.70408 0.0700719 8.53254 0.194382 8.40609L8.31426 0.136346C8.39443 0.0493494 8.50636 3.19533e-07 8.62351 3.19533e-07C8.74066 3.19533e-07 8.85259 0.0493494 8.93275 0.136346L9.86932 1.0902C9.95296 1.17468 10 1.28968 10 1.40965C10 1.52962 9.95296 1.64462 9.86932 1.7291L2.73019 9L9.86932 16.2709Z" fill="black"/>
</svg>
